<svg viewBox="0 0 800 500" preserveAspectRatio="none" xmlns="http://www.w3.org/2000/svg" xmlns:xlink="http://www.w3.org/1999/xlink" width="100%" id="blobSvg">
  <g transform="translate(107, 195)">
    <path class="blob" d="M443,304.5Q400,359,362.5,420.5Q325,482,262.5,443.5Q200,405,148,383.5Q96,362,84.5,306Q73,250,75.5,187.5Q78,125,134,95Q190,65,244.5,82Q299,99,343,124.5Q387,150,436.5,200Q486,250,443,304.5Z" fill="#75A4FF"></path>
  </g>
  <g transform="translate(-145, -177)">
    <path class="blob" d="M443,304.5Q400,359,362.5,420.5Q325,482,262.5,443.5Q200,405,148,383.5Q96,362,84.5,306Q73,250,75.5,187.5Q78,125,134,95Q190,65,244.5,82Q299,99,343,124.5Q387,150,436.5,200Q486,250,443,304.5Z" fill="#75A4FF"></path>
  </g>
</svg>